<svg width="115" height="122" viewBox="0 0 115 122" fill="none" xmlns="http://www.w3.org/2000/svg">
<path fill-rule="evenodd" clip-rule="evenodd" d="M32.1079 6.88529C31.7236 6.92199 31.4414 7.26334 31.4781 7.64769L31.7108 10.0847L29.2655 10.3182C28.8819 10.3548 28.6006 10.6955 28.6372 11.0792C28.6738 11.4628 29.0145 11.7441 29.3982 11.7075L31.8435 11.474L32.0762 13.911C32.1129 14.2953 32.4545 14.5771 32.8389 14.5404C33.2232 14.5037 33.5053 14.1624 33.4686 13.778L33.2359 11.341L35.6812 11.1076C36.0649 11.0709 36.3462 10.7302 36.3096 10.3466C36.2729 9.9629 35.9322 9.68159 35.5486 9.71822L33.1033 9.95171L32.8706 7.51473C32.8339 7.13038 32.4922 6.84859 32.1079 6.88529Z" fill="#F7B422"/>
<path fill-rule="evenodd" clip-rule="evenodd" d="M84.4831 107.224C84.0988 107.261 83.8167 107.602 83.8534 107.987L84.0861 110.424L81.6408 110.657C81.2571 110.694 80.9758 111.034 81.0124 111.418C81.0491 111.802 81.3898 112.083 81.7734 112.046L84.2187 111.813L84.4514 114.25C84.4881 114.634 84.8297 114.916 85.2141 114.879C85.5984 114.843 85.8806 114.501 85.8439 114.117L85.6112 111.68L88.0565 111.446C88.4401 111.41 88.7215 111.069 88.6848 110.685C88.6482 110.302 88.3075 110.02 87.9238 110.057L85.4785 110.291L85.2458 107.854C85.2091 107.469 84.8675 107.187 84.4831 107.224Z" fill="#F7B422"/>
<path opacity="0.403069" fill-rule="evenodd" clip-rule="evenodd" d="M92.2402 25.4596C93.0092 25.3861 93.5731 24.7035 93.4997 23.9348C93.4263 23.1661 92.7434 22.6024 91.9744 22.6759C91.2053 22.7493 90.6414 23.432 90.7148 24.2007C90.7882 24.9694 91.4711 25.533 92.2402 25.4596Z" fill="#F5CB5C"/>
<path fill-rule="evenodd" clip-rule="evenodd" d="M106.368 44.608C107.521 44.4979 108.367 43.4739 108.257 42.3208C108.147 41.1678 107.123 40.3224 105.969 40.4325C104.816 40.5427 103.97 41.5667 104.08 42.7197C104.19 43.8728 105.214 44.7182 106.368 44.608Z" fill="#F5CB5C"/>
<path fill-rule="evenodd" clip-rule="evenodd" d="M17.2688 111.272C18.4223 111.162 19.2682 110.138 19.1581 108.985C19.048 107.832 18.0236 106.986 16.8701 107.096C15.7165 107.207 14.8706 108.231 14.9807 109.384C15.0908 110.537 16.1152 111.382 17.2688 111.272Z" fill="#F5CB5C"/>
<path opacity="0.403069" fill-rule="evenodd" clip-rule="evenodd" d="M98.6975 98.8004C99.4665 98.727 100.03 98.0443 99.957 97.2756C99.8836 96.5069 99.2007 95.9433 98.4317 96.0167C97.6626 96.0901 97.0987 96.7728 97.1721 97.5415C97.2455 98.3102 97.9284 98.8738 98.6975 98.8004Z" fill="#F5CB5C"/>
<path opacity="0.403069" fill-rule="evenodd" clip-rule="evenodd" d="M4.66925 44.1358C5.43829 44.0624 6.00222 43.3797 5.92882 42.611C5.85542 41.8423 5.17249 41.2787 4.40345 41.3521C3.63442 41.4256 3.07049 42.1083 3.14389 42.8769C3.21728 43.6456 3.90022 44.2093 4.66925 44.1358Z" fill="#000"/>
<g clip-path="url(#clip0)">
<path fill-rule="evenodd" clip-rule="evenodd" d="M10.001 35.1557C11.1545 35.0455 12.0004 34.0215 11.8903 32.8684C11.7802 31.7154 10.7558 30.87 9.60225 30.9801C8.44869 31.0903 7.6028 32.1143 7.7129 33.2673C7.823 34.4204 8.84739 35.2658 10.001 35.1557Z" fill="#F5CB5C"/>
</g>
<path d="M52.9231 19.382C68.8641 17.8599 74.5851 29.6252 72.0059 40.0763L83.3146 38.9965C88.2513 38.5251 97.0497 43.6762 97.7983 51.5162C98.0018 53.6475 98.0283 56.454 97.2211 58.8025C98.3994 62.1793 98.4637 66.5294 96.2608 70.1194C96.7679 75.0856 95.7808 78.9985 93.3369 81.7885C93.2569 84.8576 92.1605 88.1993 90.3866 90.651C88.6463 93.1105 86.3595 94.5579 83.815 94.8008L49.356 98.0911C47.9533 98.2251 45.8939 97.917 43.8412 97.3339" stroke="#000" stroke-width="2.62157" stroke-linecap="round" stroke-linejoin="round"/>
<path opacity="0.2118" d="M19.003 96.3479L21.9063 96.0706C23.8636 95.8837 25.2996 94.1446 25.1127 92.1873L21.5586 54.9664C21.3718 53.0091 19.6326 51.5731 17.6753 51.76L14.772 52.0373C12.8147 52.2241 11.3788 53.9633 11.5657 55.9206L15.1187 93.1306C15.3175 95.0977 17.0457 96.5347 19.003 96.3479Z" fill="#000"/>
<path d="M92.1915 58.6463C93.2397 56.8673 93.14 53.8703 92.9822 52.2175C92.4942 47.1068 85.1742 43.8774 81.6946 44.2097L67.015 45.6114C68.5824 35.1362 65.1588 29.5048 62.9622 27.0701C60.5796 24.4117 57.488 23.061 54.4759 23.3486C52.399 23.5469 50.5315 24.5592 49.2504 26.1958C48.9957 26.5163 48.8689 26.9125 48.9073 27.3148L49.8002 36.6663C48.1031 46.2431 46.2409 51.9073 40.91 55.9496L40.7325 54.0902C40.421 50.8281 37.5144 48.4282 34.2632 48.7387L15.3211 50.5474C12.0698 50.8578 9.66996 53.7644 9.98145 57.0265L13.3694 92.5076C13.6808 95.7697 16.5874 98.1696 19.8386 97.8591L38.7807 96.0504C41.6949 95.7722 43.951 93.428 44.1346 90.5246C46.4795 91.6394 49.4343 92.2461 50.8153 92.1142L82.6319 89.0762C84.1325 88.9329 85.5257 88.0098 86.6577 86.4204C88.1692 84.3229 89.0286 81.2562 88.8115 78.7532C91.2426 76.6337 92.1288 73.1585 91.4327 68.3968C93.7849 65.451 93.4774 61.3106 92.1915 58.6463ZM88.6827 57.9828C88.5326 58.4799 88.6379 59.0075 88.96 59.3938C89.8194 60.4639 91.003 64.3559 88.6237 66.7887C88.2634 67.1523 88.0927 67.6624 88.185 68.1693C88.9384 72.4975 88.282 75.3912 86.2183 76.7623C85.6613 77.1337 85.4072 77.8054 85.5565 78.4495C85.9608 80.1556 85.3064 82.8406 84.077 84.56C83.4973 85.3835 82.8734 85.86 82.3298 85.9119L50.5131 88.9499C48.6102 89.1316 44.3311 87.4115 43.8421 86.6572L41.2578 59.5924C49.3427 54.3983 51.2774 46.6203 52.9584 36.9902C52.9864 36.8229 52.9967 36.7012 52.9822 36.549L52.138 27.7086C52.9612 26.9058 54.0749 26.5032 55.3508 26.535C57.2201 26.5759 59.1341 27.5453 60.6072 29.1823C63.9956 32.9516 65.0675 39.466 63.5336 47.074C63.44 47.5877 63.5747 48.0796 63.9197 48.4746C64.2724 48.8359 64.7628 49.0305 65.2521 48.9838L82.0086 47.3838C83.9876 47.1948 89.5433 49.5283 89.8298 52.5294C90.0707 55.0522 89.7257 56.6103 89.6145 56.9392C89.1495 57.1262 88.8131 57.5095 88.6827 57.9828ZM13.1457 56.7243C13.0014 55.2129 14.1118 53.856 15.6232 53.7116L34.5653 51.9029C36.0768 51.7586 37.4228 52.87 37.5682 54.3924L40.9561 89.8735C41.1015 91.3958 39.9901 92.7419 38.4786 92.8862L19.5365 94.6949C18.025 94.8392 16.6779 93.7169 16.5336 92.2054L13.1457 56.7243Z" fill="#F5CB5C"/>
<defs>
<clipPath id="clip0">
<rect width="89.2537" height="80.6243" fill="red" transform="translate(6.68286 22.4806) rotate(-5.45435)"/>
</clipPath>
</defs>
</svg>
